HIERARCHY
ROOT Hips
{
	OFFSET 0.000000 0.000000 0.000000 
	CHANNELS 6 Xposition Yposition Zposition Yrotation Zrotation Xrotation 
	JOINT Lumbar
	{
		OFFSET 0.000000 0.000000 0.000000 
		CHANNELS 3 Zrotation Xrotation Yrotation
		JOINT Neck
		{
			OFFSET 0.000000 0.445665 0.000000 
			CHANNELS 3 Zrotation Xrotation Yrotation
			End Site
			{
				OFFSET 0.000000 0.227535 0.000000 
			}
		}
		JOINT RightShoulder
		{
			OFFSET 0.019635 0.377685 0.194865 
			CHANNELS 3 Zrotation Xrotation Yrotation
			JOINT RightElbow
			{
				OFFSET 0.000000 -0.243375 0.000000 
				CHANNELS 2 Zrotation Yrotation
				JOINT RightWrist
				{
					OFFSET 0.000000 -0.264825 0.000000 
					CHANNELS 2 Zrotation Xrotation
					End Site
					{
						OFFSET 0.006600 -0.176220 0.000990 
					}
				}
			}
		}
		JOINT LeftShoulder
		{
			OFFSET 0.019635 0.377685 -0.194865 
			CHANNELS 3 Zrotation Xrotation Yrotation
			JOINT LeftElbow
			{
				OFFSET 0.000000 -0.243375 0.000000 
				CHANNELS 2 Zrotation Yrotation
				JOINT LeftWrist
				{
					OFFSET 0.000000 -0.264825 0.000000 
					CHANNELS 2 Zrotation Xrotation
					End Site
					{
						OFFSET 0.006600 -0.176220 -0.000990 
					}
				}
			}
		}
	}
	JOINT RightHip
	{
		OFFSET 0.052140 -0.069960 0.075570 
		CHANNELS 3 Zrotation Xrotation Yrotation
		JOINT RightKnee
		{
			OFFSET 0.000000 -0.402270 0.000000 
			CHANNELS 1 Zrotation
			JOINT RightAnkle
			{
				OFFSET 0.000000 -0.404085 0.000000 
				CHANNELS 3 Zrotation Xrotation Yrotation
				End Site
				{
					OFFSET 0.204105 -0.089430 0.008415 
				}
			}
		}
	}
	JOINT LeftHip
	{
		OFFSET 0.052140 -0.069960 -0.075570 
		CHANNELS 3 Zrotation Xrotation Yrotation
		JOINT LeftKnee
		{
			OFFSET 0.000000 -0.402270 0.000000 
			CHANNELS 1 Zrotation
			JOINT LeftAnkle
			{
				OFFSET 0.000000 -0.404085 0.000000 
				CHANNELS 3 Zrotation Xrotation Yrotation
				End Site
				{
					OFFSET 0.204105 -0.089430 -0.008415 
				}
			}
		}
	}
}
MOTION
Frames: 11
Frame Time: 0.02
-0.41986 -0.44766 0.19031 22.56869 1.05189 -5.95702 12.22183 5.48301 -4.10558 -8.83895 -3.67267 -0.82831 24.54232 -29.17578 37.3286 85.69371 80.78364 8.06597 -4.17155 39.76146 23.37275 -38.79705 83.93244 -82.15041 3.12014 2.6564 95.94463 -12.75584 -3.54037 -96.29366 -7.93713 -3.45971 -2.49739 98.3987 12.66329 -1.14757 -95.69441 -9.11334 2.10753 1.81071
-0.4198 -0.44768 0.1904 22.55601 1.02253 -5.93285 12.18796 5.45547 -4.16358 -9.00035 -3.62524 -0.82831 24.5807 -29.23104 37.44632 85.67318 80.71769 7.91802 -4.29119 38.97861 23.49918 -39.0372 83.42989 -82.1732 3.04209 2.66926 95.98985 -12.75619 -3.53137 -96.30892 -7.93283 -3.45552 -2.49589 98.42501 12.65822 -1.14699 -95.7011 -9.10816 2.11039 1.81249
-0.41973 -0.44769 0.1905 22.54658 0.98583 -5.90286 12.16103 5.42486 -4.1988 -9.12259 -3.58598 -0.82832 24.63095 -29.30257 37.55101 85.63267 80.64063 7.76709 -4.42396 38.4714 23.72731 -39.39511 82.91017 -82.19925 2.89147 2.69501 96.04362 -12.74433 -3.50453 -96.32268 -7.93015 -3.45241 -2.49557 98.45483 12.65072 -1.14174 -95.70309 -9.10482 2.11311 1.81437
-0.41966 -0.44771 0.1906 22.53609 0.95275 -5.87607 12.1309 5.39679 -4.2447 -9.25762 -3.54596 -0.82832 24.68114 -29.36409 37.66341 85.59791 80.57014 7.61773 -4.54945 37.86103 23.90723 -39.69929 82.39252 -82.22261 2.77977 2.71454 96.09279 -12.73786 -3.48559 -96.33678 -7.92675 -3.44884 -2.4947 98.48277 12.64429 -1.13834 -95.70721 -9.1006 2.11595 1.8162
-0.41959 -0.44773 0.19071 22.5238 0.91823 -5.84696 12.10081 5.36396 -4.28854 -9.41261 -3.49316 -0.82833 24.70757 -29.43839 37.76788 85.57898 80.49302 7.46487 -4.68133 37.15823 24.1004 -40.00621 81.90482 -82.2505 2.64303 2.73633 96.14519 -12.73255 -3.46818 -96.35226 -7.92327 -3.44511 -2.49389 98.51214 12.63782 -1.13638 -95.71132 -9.09657 2.11861 1.81806
-0.41953 -0.44774 0.19079 22.51601 0.88512 -5.82129 12.07229 5.34026 -4.33154 -9.51688 -3.46925 -0.82833 24.78719 -29.48881 37.8863 85.52133 80.42705 7.31999 -4.80244 36.7153 24.28746 -40.33353 81.3479 -82.26998 2.54081 2.75637 96.19272 -12.72179 -3.4432 -96.36449 -7.92036 -3.442 -2.49325 98.5392 12.63093 -1.13026 -95.71432 -9.09258 2.12158 1.81986
-0.41949 -0.44772 0.19079 22.52028 0.85689 -5.80652 12.04701 5.34285 -4.37768 -9.49446 -3.52055 -0.82833 25.00586 -29.47473 38.04156 85.36521 80.39517 7.19304 -4.89363 36.89571 24.4422 -40.7023 80.60995 -82.26509 2.55666 2.76631 96.22576 -12.69849 -3.4004 -96.36855 -7.91846 -3.44024 -2.4927 98.55997 12.62343 -1.11291 -95.71574 -9.08815 2.12562 1.82154
-0.41946 -0.44768 0.19076 22.52892 0.83051 -5.79544 12.02304 5.35469 -4.42388 -9.4219 -3.6012 -0.82834 25.27869 -29.43469 38.21212 85.16981 80.37438 7.07551 -4.9728 37.33293 24.58462 -41.08467 79.8006 -82.25176 2.60899 2.77433 96.25337 -12.67021 -3.35082 -96.36931 -7.91711 -3.43909 -2.49231 98.57812 12.61567 -1.09162 -95.71615 -9.08372 2.12995 1.82315
-0.41943 -0.44766 0.19075 22.5353 0.80384 -5.78267 11.99803 5.36207 -4.47021 -9.36998 -3.67003 -0.82834 25.53004 -29.40303 38.37896 84.99005 80.3487 6.95699 -5.05551 37.66936 24.72636 -41.45181 79.02 -82.24262 2.64129 2.7845 96.2828 -12.64433 -3.30495 -96.37131 -7.91561 -3.43775 -2.49194 98.59683 12.60801 -1.07266 -95.71676 -9.07937 2.13406 1.82477
-0.4194 -0.44763 0.19073 22.54291 0.77458 -5.76967 11.97491 5.37036 -4.51507 -9.32555 -3.73246 -0.82834 25.76848 -29.38711 38.53206 84.81954 80.32376 6.82402 -5.14715 37.94718 24.89963 -41.862 78.25658 -82.23211 2.68521 2.78972 96.31535 -12.61709 -3.25541 -96.37435 -7.91374 -3.43611 -2.49126 98.61829 12.60012 -1.05134 -95.71821 -9.07474 2.13857 1.8265
-0.41937 -0.4476 0.19071 22.54897 0.75127 -5.75818 11.94837 5.37907 -4.5633 -9.25434 -3.8154 -0.82835 26.0466 -29.33112 38.71713 84.61992 80.29784 6.72395 -5.21674 38.40581 25.00121 -42.18332 77.43802 -82.2224 2.71504 2.80465 96.33992 -12.5921 -3.2126 -96.37447 -7.91273 -3.43521 -2.4912 98.6334 12.59294 -1.03395 -95.71782 -9.07067 2.14229 1.82796
